HIERARCHY
ROOT Hips
{
	OFFSET 0.000000 89.005402 0.000000
	CHANNELS 6 Xposition Yposition Zposition Xrotation Yrotation Zrotation
	JOINT Spine
	{
		OFFSET 0.116900 10.681000 0.373400
		CHANNELS 3 Xrotation Yrotation Zrotation
		JOINT Spine1
		{
			OFFSET 0.000000 13.840401 0.053500
			CHANNELS 3 Xrotation Yrotation Zrotation
			JOINT Spine2
			{
				OFFSET 0.000000 14.712700 -0.366200
				CHANNELS 3 Xrotation Yrotation Zrotation
				JOINT Neck
				{
					OFFSET 0.000000 35.415497 -3.314200
					CHANNELS 3 Xrotation Yrotation Zrotation
					JOINT Head
					{
						OFFSET 0.000000 16.899200 1.218300
						CHANNELS 3 Xrotation Yrotation Zrotation
						JOINT HeadTop_End
						{
							OFFSET 0.000000 22.206207 2.192500
							CHANNELS 3 Xrotation Yrotation Zrotation
							End Site
							{
								OFFSET 0.000000 22.314178 0.000000
							}
						}
					}
				}
				JOINT LeftShoulder
				{
					OFFSET 12.896400 26.716293 -4.548400
					CHANNELS 3 Xrotation Yrotation Zrotation
					JOINT LeftArm
					{
						OFFSET 19.027000 -4.857010 -1.718400
						CHANNELS 3 Xrotation Yrotation Zrotation
						JOINT LeftForeArm
						{
							OFFSET 24.179897 0.000000 0.000000
							CHANNELS 3 Xrotation Yrotation Zrotation
							JOINT LeftHand
							{
								OFFSET 27.156403 0.000000 0.000000
								CHANNELS 3 Xrotation Yrotation Zrotation
								JOINT LeftHandIndex1
								{
									OFFSET 16.441200 0.000000 0.000000
									CHANNELS 3 Xrotation Yrotation Zrotation
									JOINT LeftHandIndex2
									{
										OFFSET 4.821899 0.000000 0.000000
										CHANNELS 3 Xrotation Yrotation Zrotation
										JOINT LeftHandIndex3
										{
											OFFSET 6.386497 0.000000 0.000000
											CHANNELS 3 Xrotation Yrotation Zrotation
											JOINT LeftHandIndex4
											{
												OFFSET 5.188988 0.000000 0.000000
												CHANNELS 3 Xrotation Yrotation Zrotation
												End Site
												{
													OFFSET -0.178703 5.185913 0.000177
												}
											}
										}
									}
								}
								JOINT LeftHandThumb1
								{
									OFFSET 6.534897 -5.032593 5.900300
									CHANNELS 3 Xrotation Yrotation Zrotation
									JOINT LeftHandThumb2
									{
										OFFSET 3.818176 -2.204422 2.204423
										CHANNELS 3 Xrotation Yrotation Zrotation
										JOINT LeftHandThumb3
										{
											OFFSET 3.252098 -1.877594 1.877601
											CHANNELS 3 Xrotation Yrotation Zrotation
											JOINT LeftHandThumb4
											{
												OFFSET 5.251778 -3.032120 3.032117
												CHANNELS 3 Xrotation Yrotation Zrotation
												End Site
												{
													OFFSET 0.000023 6.780014 0.000000
												}
											}
										}
									}
								}
							}
						}
					}
				}
				JOINT RightShoulder
				{
					OFFSET -12.896300 26.716293 -4.548400
					CHANNELS 3 Xrotation Yrotation Zrotation
					JOINT RightArm
					{
						OFFSET -19.027000 -4.857010 -1.718400
						CHANNELS 3 Xrotation Yrotation Zrotation
						JOINT RightForeArm
						{
							OFFSET -24.179897 0.000000 0.000000
							CHANNELS 3 Xrotation Yrotation Zrotation
							JOINT RightHand
							{
								OFFSET -27.156403 0.000000 0.000000
								CHANNELS 3 Xrotation Yrotation Zrotation
								JOINT RightHandThumb1
								{
									OFFSET -6.591202 -4.852203 5.988100
									CHANNELS 3 Xrotation Yrotation Zrotation
									JOINT RightHandThumb2
									{
										OFFSET -3.818176 -2.204422 2.204423
										CHANNELS 3 Xrotation Yrotation Zrotation
										JOINT RightHandThumb3
										{
											OFFSET -3.252098 -1.877594 1.877601
											CHANNELS 3 Xrotation Yrotation Zrotation
											JOINT RightHandThumb4
											{
												OFFSET -5.251778 -3.032120 3.032117
												CHANNELS 3 Xrotation Yrotation Zrotation
												End Site
												{
													OFFSET -0.000023 6.780014 0.000000
												}
											}
										}
									}
								}
								JOINT RightHandIndex1
								{
									OFFSET -16.029404 0.000000 0.000000
									CHANNELS 3 Xrotation Yrotation Zrotation
									JOINT RightHandIndex2
									{
										OFFSET -5.213303 0.000000 0.000000
										CHANNELS 3 Xrotation Yrotation Zrotation
										JOINT RightHandIndex3
										{
											OFFSET -6.386528 0.000000 0.000000
											CHANNELS 3 Xrotation Yrotation Zrotation
											JOINT RightHandIndex4
											{
												OFFSET -5.189026 0.000000 0.000000
												CHANNELS 3 Xrotation Yrotation Zrotation
												End Site
												{
													OFFSET 0.236702 5.183624 0.001972
												}
											}
										}
									}
								}
							}
						}
					}
				}
			}
		}
	}
	JOINT LeftUpLeg
	{
		OFFSET 14.073000 -7.904099 -1.463000
		CHANNELS 3 Xrotation Yrotation Zrotation
		JOINT LeftLeg
		{
			OFFSET -0.109806 -34.073280 4.093200
			CHANNELS 3 Xrotation Yrotation Zrotation
			JOINT LeftFoot
			{
				OFFSET 0.109806 -29.899420 -6.319000
				CHANNELS 3 Xrotation Yrotation Zrotation
				JOINT LeftToeBase
				{
					OFFSET 1.551100 -14.988700 20.535801
					CHANNELS 3 Xrotation Yrotation Zrotation
					JOINT LeftToe_End
					{
						OFFSET 0.221200 0.570800 13.248301
						CHANNELS 3 Xrotation Yrotation Zrotation
						End Site
						{
							OFFSET 0.000000 13.262435 0.000000
						}
					}
				}
			}
		}
	}
	JOINT RightUpLeg
	{
		OFFSET -13.839300 -7.904099 -1.463000
		CHANNELS 3 Xrotation Yrotation Zrotation
		JOINT RightLeg
		{
			OFFSET 0.109694 -34.073219 4.093300
			CHANNELS 3 Xrotation Yrotation Zrotation
			JOINT RightFoot
			{
				OFFSET -0.109694 -29.899384 -6.319200
				CHANNELS 3 Xrotation Yrotation Zrotation
				JOINT RightToeBase
				{
					OFFSET -1.551100 -14.988700 20.535801
					CHANNELS 3 Xrotation Yrotation Zrotation
					JOINT RightToe_End
					{
						OFFSET -0.221200 0.570900 13.248299
						CHANNELS 3 Xrotation Yrotation Zrotation
						End Site
						{
							OFFSET 0.000000 13.262440 0.000000
						}
					}
				}
			}
		}
	}
}
MOTION
Frames: 8
Frame Time: 0.033333
-7.608274 63.994743 -1.496791 -7.832361 -14.378496 -3.613657 15.177119 -0.407324 5.257532 27.307274 -0.750275 1.580008 27.321146 -1.474714 0.530948 -6.588657 1.535507 4.448797 -31.240319 13.990280 -1.180918 -0.000000 -0.000000 0.000000 0.640563 -3.539064 28.874471 -120.185662 -29.566441 -64.996777 0.000007 -18.616977 0.000003 -113.927187 -8.352748 -2.962717 0.677749 2.983787 -25.589386 0.720951 3.072259 -26.407198 0.182480 1.577813 -13.193932 -0.000002 -0.000001 -0.000001 12.451962 1.499761 -6.295672 14.891679 14.963039 -2.686178 4.759722 5.247538 1.608927 0.000003 0.000002 -0.000001 0.229972 -0.273293 -12.306958 -87.938481 6.339368 71.064471 0.000257 100.210794 -0.000266 3.210642 -3.373369 11.946727 15.769643 -8.670695 32.984097 -17.469100 -30.528746 -34.327421 -8.186761 -12.507792 -17.038204 0.000002 -0.000001 0.000001 4.047680 -6.316557 65.272867 7.347220 -6.936824 93.299913 2.165142 -5.045702 46.426995 -0.000001 -0.000001 0.000001 -47.135375 2.252130 13.861288 100.084647 3.650271 1.543478 -26.973537 1.515536 -11.035981 -26.541726 -0.000000 -0.000003 0.000000 -0.000000 -0.000000 -43.228612 -7.159597 14.647366 87.065343 -11.010050 -0.734845 -36.042509 0.845052 -11.066769 -0.006648 0.000016 0.000003 0.000000 0.000002 0.000000 
-7.599005 64.208191 0.911690 -8.528960 -14.188220 -2.227920 15.350700 -0.994913 4.526769 27.500725 -0.977410 1.188605 27.487972 -1.720444 0.153354 -6.527519 1.489656 4.198984 -31.265232 13.425551 -1.243079 0.000000 -0.000000 0.000000 0.625580 -3.465454 29.010959 -120.666425 -29.026286 -65.067032 0.000013 -18.168336 0.000009 -113.327148 -7.916076 -3.583129 0.677751 2.983791 -25.589389 0.720952 3.072260 -26.407200 0.182480 1.577813 -13.193938 -0.000004 0.000000 -0.000000 12.451968 1.499768 -6.295673 14.891680 14.963034 -2.686175 4.759721 5.247538 1.608931 0.000001 -0.000002 0.000003 0.254893 -0.121253 -12.555753 -87.836472 6.339572 71.084067 0.000182 100.313643 -0.000181 3.862811 -3.127802 11.437823 15.769643 -8.670692 32.984097 -17.469105 -30.528750 -34.327417 -8.186762 -12.507796 -17.038206 0.000003 0.000001 0.000000 4.047680 -6.316555 65.272860 7.347213 -6.936822 93.299913 2.165137 -5.045702 46.426992 0.000001 -0.000000 -0.000001 -52.641945 0.901082 14.575625 92.560449 0.234387 0.782219 -21.456160 2.833195 -15.035927 -16.739680 -0.000000 0.000001 -0.000001 0.000000 0.000000 -40.172164 -6.117855 13.640100 88.550916 -11.418960 -0.845569 -39.110766 0.463631 -12.067086 -0.858931 -0.000012 0.000004 0.000000 -0.000002 -0.000000 
-7.507912 64.230225 3.172327 -9.136998 -13.964567 -0.979978 15.399551 -1.539899 4.096476 27.545115 -1.169791 0.896010 27.512262 -1.905713 -0.136871 -6.419688 1.459167 3.885914 -31.315287 12.868294 -1.400063 -0.000001 -0.000000 0.000000 0.593331 -3.364687 29.220413 -120.895482 -28.428666 -65.085194 0.000004 -17.831992 0.000007 -112.895302 -7.809041 -4.174844 0.677750 2.983788 -25.589386 0.720948 3.072256 -26.407198 0.182482 1.577812 -13.193939 0.000001 -0.000001 0.000002 12.451968 1.499766 -6.295676 14.891682 14.963039 -2.686179 4.759724 5.247534 1.608926 -0.000002 -0.000003 0.000003 0.271775 0.008568 -12.914220 -87.807327 6.158917 71.150463 0.000426 100.357718 -0.000426 4.363307 -2.993658 11.416249 15.769642 -8.670698 32.984097 -17.469102 -30.528746 -34.327421 -8.186765 -12.507793 -17.038202 0.000004 0.000000 0.000000 4.047682 -6.316555 65.272860 7.347219 -6.936821 93.299913 2.165143 -5.045701 46.426995 0.000000 -0.000003 0.000002 -55.803520 0.444758 15.219123 83.088363 -2.268993 -0.004913 -15.292857 4.558773 -21.879673 -7.187260 0.000002 -0.000003 -0.000000 -0.000000 0.000001 -37.922518 -5.413668 12.127441 90.375007 -11.683751 -0.916018 -40.774255 0.036470 -12.206150 -2.608567 -0.000008 -0.000003 -0.000000 0.000001 0.000000 
-7.413344 64.138008 5.375859 -9.638803 -13.974110 0.077805 15.355971 -1.969363 3.742845 27.483585 -1.260369 0.632349 27.436390 -1.973554 -0.400277 -6.424623 1.440665 3.692372 -31.132781 12.572106 -1.641416 -0.000000 -0.000001 0.000001 0.471576 -3.023397 29.400314 -120.935179 -27.988469 -65.263776 0.000011 -17.600969 -0.000000 -112.832758 -7.879508 -4.238564 0.677753 2.983793 -25.589386 0.720948 3.072255 -26.407202 0.182480 1.577811 -13.193934 0.000000 -0.000002 -0.000001 12.451968 1.499765 -6.295674 14.891687 14.963032 -2.686177 4.759721 5.247537 1.608926 -0.000002 0.000001 0.000000 0.260970 -0.008641 -13.286401 -87.679398 5.940475 71.403863 -0.000056 100.374739 0.000089 4.560007 -2.914694 11.473235 15.769642 -8.670696 32.984093 -17.469107 -30.528746 -34.327421 -8.186761 -12.507798 -17.038202 -0.000000 0.000001 0.000001 4.047680 -6.316556 65.272860 7.347222 -6.936825 93.299920 2.165148 -5.045704 46.426992 -0.000002 -0.000002 0.000002 -60.001538 2.057716 13.743273 76.083485 -0.454924 -0.035460 -10.725086 3.764993 -19.676991 -3.788132 0.000001 0.000003 -0.000000 0.000000 -0.000000 -35.915027 -4.917699 10.697895 92.606655 -12.104389 -1.016856 -42.792573 -0.334811 -11.926309 -4.954768 0.000006 -0.000003 0.000000 0.000001 0.000000 
-7.359421 64.124184 7.293636 -10.057712 -14.177302 0.955010 15.273778 -2.348968 3.279944 27.387575 -1.241952 0.395832 27.331168 -1.931429 -0.635664 -6.618067 1.415199 3.724935 -30.518156 12.592856 -1.964855 -0.000001 0.000000 0.000000 0.247597 -2.391451 29.510293 -120.894949 -27.792076 -65.663506 -0.000009 -17.464591 -0.000011 -113.084922 -7.988422 -3.765835 0.677749 2.983792 -25.589391 0.720950 3.072256 -26.407200 0.182480 1.577813 -13.193937 -0.000000 -0.000002 -0.000002 12.451963 1.499764 -6.295674 14.891680 14.963034 -2.686177 4.759724 5.247538 1.608927 0.000002 0.000002 -0.000001 0.206587 -0.284920 -13.495610 -87.494389 5.883844 71.913757 0.000008 100.337924 -0.000003 4.490549 -2.904167 11.433555 15.769643 -8.670695 32.984093 -17.469105 -30.528750 -34.327421 -8.186764 -12.507797 -17.038204 0.000002 -0.000002 0.000001 4.047682 -6.316557 65.272860 7.347218 -6.936821 93.299913 2.165144 -5.045703 46.426992 -0.000001 -0.000002 0.000004 -62.474381 5.734028 10.057233 70.122820 4.553894 0.472649 -13.136808 2.075377 -7.652214 -3.721658 0.000000 0.000003 -0.000000 0.000000 0.000000 -34.282191 -4.496402 9.536377 94.670028 -12.696434 -1.152111 -44.394737 -0.670479 -11.522982 -7.865607 -0.000003 0.000001 -0.000000 0.000000 -0.000000 
-7.169886 63.972870 9.283888 -10.404008 -14.408598 1.399639 15.201327 -2.622790 2.946603 27.299571 -1.165772 0.230891 27.238530 -1.844943 -0.797569 -6.877943 1.377324 3.850353 -29.696816 12.677810 -2.236626 -0.000001 -0.000000 -0.000000 0.012577 -1.718950 29.516840 -120.817304 -27.806132 -66.129755 0.000007 -17.372323 0.000007 -113.340453 -8.066254 -3.123529 0.677748 2.983791 -25.589387 0.720949 3.072257 -26.407202 0.182479 1.577817 -13.193937 -0.000002 0.000003 0.000002 12.451964 1.499767 -6.295674 14.891684 14.963037 -2.686180 4.759721 5.247539 1.608925 -0.000002 0.000002 0.000000 0.111732 -0.791300 -13.604460 -87.318655 5.954313 72.578608 0.000020 100.258523 -0.000018 4.282246 -3.002396 11.372741 15.769642 -8.670691 32.984090 -17.469097 -30.528743 -34.327424 -8.186763 -12.507797 -17.038201 0.000001 -0.000002 0.000001 4.047679 -6.316554 65.272860 7.347217 -6.936822 93.299913 2.165136 -5.045705 46.426992 0.000004 0.000000 -0.000002 -62.983818 8.299540 7.235615 63.415349 8.076082 0.880468 -15.291692 1.161329 0.524853 -3.747270 0.000002 0.000002 0.000001 -0.000000 0.000000 -32.806785 -4.008381 8.548790 96.846700 -13.188766 -1.260974 -45.719644 -1.014665 -10.609126 -11.339358 -0.000004 0.000001 -0.000000 -0.000000 0.000001 
-6.923758 63.729042 11.432871 -10.693471 -14.577975 1.521161 15.129443 -2.814531 2.711827 27.218369 -1.065507 0.140831 27.155872 -1.748560 -0.883904 -7.028816 1.329863 3.912588 -29.067963 12.569029 -2.283780 0.000000 -0.000001 0.000001 -0.112808 -1.357762 29.467130 -120.627629 -27.950534 -66.438254 0.000002 -17.266460 0.000011 -113.427189 -8.158342 -2.649717 0.677750 2.983790 -25.589387 0.720951 3.072259 -26.407200 0.182480 1.577812 -13.193936 -0.000001 -0.000000 0.000000 12.451962 1.499764 -6.295674 14.891680 14.963037 -2.686182 4.759721 5.247535 1.608926 -0.000000 0.000001 0.000001 0.004779 -1.351888 -13.687193 -87.111194 6.050625 73.195913 0.000093 100.154677 -0.000100 4.041228 -3.189302 11.325406 15.769648 -8.670690 32.984093 -17.469093 -30.528746 -34.327421 -8.186762 -12.507796 -17.038204 0.000001 0.000000 0.000003 4.047682 -6.316556 65.272860 7.347213 -6.936822 93.299913 2.165137 -5.045707 46.426995 -0.000000 -0.000003 0.000001 -62.941730 9.583915 5.224603 57.598131 8.131348 1.075820 -16.994559 2.384159 5.100053 -3.755854 0.000000 0.000005 -0.000000 -0.000000 -0.000000 -31.159002 -3.415008 7.605616 98.975937 -13.541133 -1.332984 -46.979018 -1.341840 -9.067224 -15.065227 -0.000006 -0.000006 0.000001 0.000000 0.000001 
-6.661497 63.440758 13.793976 -10.891158 -14.713283 1.498029 15.019033 -2.966084 2.484135 27.092509 -0.971663 0.041034 27.027245 -1.668087 -0.979962 -7.007555 1.293695 3.912569 -28.766339 12.362705 -2.107956 -0.000002 0.000000 -0.000000 -0.113152 -1.377622 29.428270 -120.262843 -28.149952 -66.620989 0.000011 -17.126815 -0.000000 -113.478580 -8.429889 -2.374286 0.677751 2.983789 -25.589381 0.720951 3.072260 -26.407198 0.182480 1.577813 -13.193935 0.000002 0.000001 0.000001 12.451967 1.499768 -6.295672 14.891684 14.963037 -2.686176 4.759725 5.247541 1.608928 0.000002 0.000001 0.000001 -0.076522 -1.761876 -13.668629 -86.688604 6.168498 73.654731 0.000126 100.055789 -0.000101 3.686972 -3.349577 11.199888 15.769645 -8.670696 32.984097 -17.469100 -30.528750 -34.327421 -8.186760 -12.507799 -17.038204 0.000003 0.000000 0.000001 4.047684 -6.316557 65.272867 7.347219 -6.936822 93.299913 2.165137 -5.045706 46.426995 -0.000003 -0.000001 0.000002 -62.845909 9.642191 4.106333 53.450035 7.427602 1.063230 -17.782360 2.887971 5.929626 -3.764383 0.000001 0.000000 -0.000002 -0.000001 0.000000 -29.109447 -2.794696 6.639499 100.894516 -13.836002 -1.394576 -48.441587 -1.784507 -7.250761 -18.848337 0.000009 0.000005 0.000000 -0.000001 -0.000000 
